<svg xmlns="http://www.w3.org/2000/svg" width="32" height="32" viewBox="0 0 32 32"><path fill="#e3ddd2" d="M10.061 13.619c.077.397.358.576.742.499.352-.07.672-.582.704-.87.006-.032.006-.07-.026-.09-.102-.064-.224-.064-.346-.064-.077 0-.077.09-.102.147-.07.186-.128.378-.275.525-.134.134-.294.09-.333-.096a.533.533 0 0 1-.013-.173 1.74 1.74 0 0 1 .346-.941c.083-.115.179-.237.058-.358-.115-.122-.25-.032-.365.038-.026.013-.045.032-.064.045-.403.301-.768.64-1.101 1.011-.371.416-.314.326.07.659.013.013.026.019.038.026.077.058.134.045.186-.038.07-.122.141-.243.224-.352.051-.07.07-.198.179-.179.09.013.051.141.077.211zm-2.663.019c-.147.198-.166.512-.051.672.134.179.32.198.589.141a.865.865 0 0 0 .602-.563c.115-.326-.096-.666-.41-.64a.927.927 0 0 0-.73.39zm11.162-1.971c.16.128.166.122.275-.051.083-.134.173-.275.262-.41.026-.038.045-.096.102-.09.064.013.051.07.058.122.006.038.006.077.013.115.07.39.358.582.736.506.384-.064.672-.544.73-.864.006-.026 0-.064-.013-.077-.09-.077-.205-.077-.32-.083-.09-.006-.115.07-.134.134-.064.186-.134.378-.269.531-.064.07-.141.109-.23.077-.083-.032-.122-.102-.122-.192-.019-.326.045-.621.307-.845a.887.887 0 0 0 .128-.141c.115-.154.128-.288.032-.397-.077-.09-.237-.102-.384 0-.538.358-.992.8-1.421 1.28-.07.083-.058.154.026.218l.224.166z"/><path fill="#e3ddd2" d="M4.301 14.842c.301-.224.582-.48.826-.768.128-.147.122-.179-.064-.23-.147-.045-.301-.083-.448-.134-.192-.07-.339-.038-.493.115-.448.454-.947.838-1.555 1.062a1.269 1.269 0 0 1-.896.006c-.166-.058-.166-.115-.026-.23.602-.48 1.248-.896 1.92-1.274a23.906 23.906 0 0 1 1.952-.966c.723-.326 1.472-.57 2.234-.787a18.381 18.381 0 0 1 2.202-.48 16.16 16.16 0 0 1 2.778-.224c.141 0 .243-.045.301-.186.064-.16.154-.307.224-.467.141-.307.128-.326-.218-.307-1.03.07-2.054.218-3.226.467-.538.134-1.242.294-1.933.506-.96.301-1.907.627-2.829 1.037-.998.442-1.965.947-2.886 1.536a17.87 17.87 0 0 0-1.67 1.184c-.275.23-.237.506.09.659.474.224.973.314 1.491.294.838-.026 1.574-.32 2.227-.813z"/><path fill="#e3ddd2" d="M19.443 13.165c-.173.531-.358 1.056-.531 1.587a.681.681 0 0 1-.224.326c-.205.16-.397.109-.506-.128-.019-.051-.032-.102-.051-.141a1.77 1.77 0 0 1 .16-.934c.16-.384.397-.71.774-.915a.963.963 0 0 1 .115-.051c.096-.026.198-.038.275.032s.006.154-.013.224zM9.395 17.024a.677.677 0 0 1-.224.307c-.211.16-.422.09-.506-.16-.013-.038-.019-.07-.038-.154-.038-.525.134-1.024.499-1.459a1.19 1.19 0 0 1 .48-.371.58.58 0 0 1 .25-.045c.102.006.147.058.109.16a68.07 68.07 0 0 1-.57 1.722zm15.251-4.781c-.07-.333.07-.595.23-.845.07-.109.173-.205.262-.301.07-.07.134-.058.141.045.026.435.013.864-.339 1.19-.051.051-.109.122-.192.096-.09-.026-.083-.122-.102-.186zm7.104-.32c-.09-.141-.23-.173-.384-.166-.147.006-.32-.019-.41.154-.083.154-.166.314-.256.467-.352.576-.781.774-1.44.659-.358-.064-.64-.346-.589-.736.045-.333.179-.621.333-.896.224-.397.506-.749.787-1.101.07-.096.07-.16-.026-.224-.134-.096-.269-.186-.39-.288-.128-.109-.211-.09-.32.032-.384.435-.787.858-1.139 1.318-.032.045-.07.115-.134.083-.058-.026-.019-.096-.019-.147.019-.326.141-.627.275-.922.038-.083.051-.154-.077-.141-.25.026-.499.064-.755.09-.147.013-.224.083-.269.23-.154.57-.326 1.139-.474 1.709a.707.707 0 0 1-.333.467 2.579 2.579 0 0 0-.89.851 1.09 1.09 0 0 1-.461.422.33.33 0 0 1-.435-.128c-.147-.237-.09-.486-.045-.736.019-.128.077-.173.211-.109.173.077.352.07.531-.013.224-.109.416-.25.576-.435.288-.339.474-.71.416-1.178-.058-.442-.301-.672-.742-.691-.563-.019-.954.282-1.267.704a3.35 3.35 0 0 0-.48.896c-.019.051-.026.134-.109.115-.077-.013-.07-.09-.077-.147a1.95 1.95 0 0 1 .051-.512c.019-.096-.006-.147-.115-.134-.205.026-.403.045-.608.064a.22.22 0 0 0-.198.16c-.083.269-.096.55.051.781.154.237.134.442.038.678-.045.115-.07.237-.122.352-.186.454-.384.902-.755 1.242-.122.109-.147.102-.218-.045a1.188 1.188 0 0 1-.083-.678 7.008 7.008 0 0 1 .685-2.176c.019-.038.07-.083.032-.134-.032-.051-.09-.026-.134-.026-.224.019-.448.07-.666.115-.077.013-.122.058-.147.134-.192.563-.41 1.126-.461 1.728-.038.442-.16.813-.538 1.062-.058.038-.09.141-.186.102-.09-.032-.115-.115-.141-.205-.051-.186.032-.352.09-.512.211-.576.435-1.146.653-1.722.058-.154.026-.186-.128-.166-.192.026-.384.058-.576.083-.045.006-.115.013-.134.045-.083.16-.211.102-.333.083-.058-.006-.115-.006-.179-.006-.467.026-.826.256-1.126.589-.448.506-.698 1.094-.71 1.773a.498.498 0 0 1-.224.448c-.154.115-.294.25-.442.378-.102.09-.154.077-.218-.045-.096-.179-.07-.358.013-.531.102-.218.211-.435.32-.653.166-.333.339-.659.506-.992.058-.115.032-.179-.09-.218a8.219 8.219 0 0 1-.41-.141c-.083-.032-.134-.006-.173.07-.09.166-.186.326-.269.499-.064.134-.16.179-.288.128-.134-.058-.058-.166-.032-.25.064-.198.141-.397.211-.589.07-.198.051-.224-.147-.198-.192.026-.384.064-.576.09a.207.207 0 0 0-.179.141c-.134.403-.243.806-.173 1.235a.365.365 0 0 1-.032.218c-.23.454-.512.87-.787 1.293a4.214 4.214 0 0 1-.256.333c-.045.058-.109.096-.186.051-.115-.07-.198-.16-.192-.314a1.23 1.23 0 0 1 .07-.346c.314-.928.73-1.805 1.158-2.682.339-.704.704-1.395 1.101-2.061.122-.205.243-.416.371-.627.064-.102.058-.16-.083-.154-.262.006-.525.006-.787.006-.083 0-.128.045-.16.109-.083.154-.166.301-.25.454a42.662 42.662 0 0 0-1.094 2.246c-.48 1.082-.96 2.163-1.178 3.341a.248.248 0 0 1-.102.173c-.147.109-.288.23-.429.339-.102.077-.186.09-.262-.045a.633.633 0 0 1-.09-.352c.019-.333.154-.627.282-.922.333-.768.666-1.53 1.005-2.291.416-.934.845-1.862 1.357-2.746.026-.045.07-.09.032-.147-.032-.051-.096-.045-.147-.038-.192.013-.39.045-.576.026-.211-.019-.301.07-.378.237-.339.704-.678 1.402-.998 2.118-.563 1.267-1.082 2.554-1.414 3.91a.33.33 0 0 1-.077.173c-.205.192-.41.384-.614.57-.064.058-.109.038-.154-.032-.064-.109-.102-.218-.083-.352s.07-.262.115-.384c.211-.538.429-1.082.64-1.619.07-.179.026-.23-.16-.205-.16.026-.32.058-.474.083-.096.019-.186.045-.237.147-.032.07-.096.077-.166.064a1.306 1.306 0 0 0-.698.07c-.339.128-.589.365-.806.646a4.383 4.383 0 0 0-.538.934c-.032.07-.07.141-.166.102-.09-.032-.147-.09-.147-.192 0-.038.019-.083.032-.122.115-.307.23-.614.339-.922.051-.147.019-.192-.134-.179-.371.038-.73.083-.915.48-.058.128-.179.224-.275.339a.677.677 0 0 1-.243.179c-.147.077-.301.045-.429-.032-.122-.077-.019-.198-.019-.294a.3.3 0 0 1 .026-.109c.269-1.069.634-2.099 1.248-3.027.058-.083.102-.16.026-.262s-.173-.115-.288-.083c-.198.064-.397.128-.602.186a.315.315 0 0 0-.23.198c-.096.243-.198.486-.294.736a16.05 16.05 0 0 0-.704 2.362c-.038.179-.058.192-.218.096-.358-.218-.358-.218-.448.192-.045.211-.083.422-.134.634-.032.141.038.237.128.326.09.083.141-.019.211-.051.026-.013.058-.045.083-.026.058.038.045.109.045.16-.032.717-.179 1.408-.518 2.048-.134.25-.275.499-.512.678-.186.141-.365.122-.506-.064a1.447 1.447 0 0 1-.166-.275c-.237-.544-.314-1.114-.346-1.696 0-.045.019-.102-.032-.134-.058-.032-.102.006-.147.038-.307.218-.608.442-.922.659-.128.09-.16.186-.109.333.186.55.41 1.075.909 1.434.39.282.813.378 1.28.218.416-.141.717-.422.979-.762.294-.384.474-.819.595-1.28.154-.435.282-.883.41-1.331.026-.096.058-.154.179-.128.218.051.416 0 .595-.134.032-.019.058-.064.096-.038.045.026.019.077.006.115-.006.026-.019.051-.032.077-.365.986-.678 1.984-.838 3.027a3.4 3.4 0 0 0 .013 1.248c.115.531.64.614.954.442.518-.282.755-.774.979-1.28.026-.051 0-.09-.051-.122-.122-.077-.243-.16-.371-.23-.173-.102-.314-.051-.384.134-.096.25-.186.506-.282.755-.019.045-.038.109-.109.102s-.096-.064-.115-.122a.541.541 0 0 1 0-.288c.198-.87.416-1.734.698-2.586.077-.237.173-.467.262-.698.051-.128.154-.16.275-.154.128.006.09.128.115.198a.63.63 0 0 1 .032.16c.019.096.032.192.064.282.09.288.25.41.544.442.397.038.698-.154.966-.403.09-.083.147-.109.256-.032.186.134.39.147.608.051.32-.141.57-.358.787-.627.09-.109.147-.102.224.006.109.16.25.275.448.275.186 0 .365-.038.531-.128a2.93 2.93 0 0 0 .627-.454c.058-.058.109-.07.179-.019.326.224.666.218.992.006.25-.16.435-.378.614-.614.32-.416.576-.87.813-1.331.077-.141.154-.288.23-.429a.192.192 0 0 1 .262-.09c.102.051.013.134-.013.192-.173.365-.352.73-.435 1.126-.096.467.154.742.621.685.122-.013.23-.051.339-.102.301-.134.499-.39.749-.582.192-.147.186-.154.352.026.333.358.691.397 1.088.115.096-.07.186-.147.256-.243.058-.077.115-.102.205-.045.205.147.422.122.646.032.275-.115.474-.333.678-.538.096-.096.141-.096.218.019.192.301.474.403.819.346s.576-.275.774-.538c.269-.352.467-.749.614-1.165l.211-.627c.038-.122.134-.186.25-.154s.038.134.026.205c-.058.294-.045.589.045.877.128.41.544.557 1.005.512.371-.032.653-.23.89-.499.256-.294.461-.621.755-.883.032-.032.064-.09.122-.051.045.032.006.077 0 .122-.045.179-.096.352-.141.531-.038.16-.013.192.147.205.186.013.378.026.563.045.224.019.23.013.275-.205.134-.691.365-1.338.8-1.901.026-.038.045-.102.102-.083.07.019.051.083.045.134-.026.128 0 .256 0 .384.013.314.122.595.365.794.454.378 1.011.48 1.581.448.89-.051 1.44-.634 1.875-1.338a.247.247 0 0 0-.006-.23z"/><path fill="#e3ddd2" d="M10.413 21.466c0 .128-.019.224-.064.282-.045.064-.109.096-.198.096s-.16-.032-.198-.096a.495.495 0 0 1-.064-.282v-1.619c0-.141.026-.243.083-.294s.147-.083.288-.083h.48c.262 0 .474.07.627.218.154.141.23.339.23.582 0 .25-.07.442-.218.582-.141.141-.346.211-.595.211h-.358v.403zm0-.884h.23c.122 0 .211-.026.275-.077s.09-.128.09-.23c0-.102-.032-.179-.09-.23s-.154-.077-.275-.077h-.23v.614zm6.739-.761c0-.128.019-.224.064-.288s.109-.096.198-.096c.09 0 .16.032.198.096.045.064.064.16.064.288v1.498h.448c.128 0 .224.019.288.064.064.038.096.102.096.186s-.032.147-.096.186a.568.568 0 0 1-.288.064h-.621c-.141 0-.23-.026-.282-.07s-.077-.134-.077-.262v-1.664zm4.013 1.555l-.083.237c-.026.077-.058.141-.102.179s-.096.064-.154.064a.273.273 0 0 1-.186-.07.266.266 0 0 1-.07-.186c0-.032 0-.058.006-.083l.019-.07.608-1.651a.578.578 0 0 1 .166-.262.349.349 0 0 1 .243-.083c.09 0 .173.026.237.077s.122.128.154.23l.595 1.683c.013.038.019.064.026.096s.006.051.006.077c0 .077-.026.134-.077.179s-.115.07-.192.07c-.07 0-.128-.019-.173-.064s-.083-.109-.109-.198l-.064-.218h-.851zm.147-.493h.557l-.269-.87-.288.87zm3.885.007v.576c0 .128-.019.224-.064.282-.045.064-.109.096-.198.096s-.16-.032-.198-.096a.495.495 0 0 1-.064-.282v-1.619c0-.141.026-.243.083-.294s.147-.083.288-.083h.416c.275 0 .493.064.653.198s.237.307.237.538a.612.612 0 0 1-.147.416.68.68 0 0 1-.41.211l.422.467c.051.058.096.115.122.166s.038.096.038.141c0 .07-.026.128-.07.179a.236.236 0 0 1-.179.07c-.045 0-.09-.013-.134-.045s-.096-.077-.154-.147l-.64-.774zm0-.359h.243c.109 0 .192-.026.25-.077s.09-.122.09-.211c0-.09-.032-.16-.09-.205-.058-.051-.141-.07-.243-.07h-.25v.563z"/><path fill="#f7941e" d="M15.789 19.853a1.909 1.909 0 0 0-.237-.416 1.971 1.971 0 0 0-.326-.326c-.115-.09-.243-.166-.365-.218s-.25-.077-.378-.09l-.032-.243a.364.364 0 0 0-.102.096.236.236 0 0 1-.051.058.114.114 0 0 1-.096.045h-.064c-.032 0-.09 0-.154.006-.07.006-.154.013-.23.032a1.488 1.488 0 0 0-.345.102c-.032.019-.064.038-.083.058.134-.038.269-.058.384-.051.032 0 .064.006.096.013a.942.942 0 0 1 .217.077c.032.032.013.077-.006.096-.026.026-.045.026-.077.019-.013-.006-.032-.006-.051-.013s-.038-.013-.064-.019c-.032-.006-.07-.019-.102-.026s-.064-.013-.096-.013a.901.901 0 0 0-.365.071c-.026.013-.045.026-.077.026-.026 0-.045 0-.09-.051-.013-.019-.032-.045-.051-.077s-.045-.07-.064-.109c-.019-.038-.045-.07-.058-.102-.019-.026-.032-.051-.045-.064s-.026-.026-.038-.032c-.026.301-.045.608-.058.832s-.013.371-.013.474c0 .102.006.16.013.211.006.045.019.083.032.115s.032.058.045.083c.019.026.038.045.058.064s.032.026.058.058c.026.026.07.07.109.115s.064.083.083.128c.077.134.096.288.122.397.006.038.019.077.032.102s.019.038.038.051c.032.032.07.038.102.045.051 0 .09 0 .141-.083l.045-.09a.379.379 0 0 0 .032-.083c.019-.045.045-.109.077-.173.032-.058.064-.102.096-.154.038-.045.077-.096.109-.128s.051-.045.083-.07c.032-.026.083-.064.128-.102.096-.083.173-.166.218-.243a.65.65 0 0 0 .09-.256.948.948 0 0 0 0-.301c-.006-.038-.006-.051-.013-.083s-.013-.077-.013-.102c0-.032 0-.045.006-.051.006-.013.013-.019.019-.019.013-.006.026-.006.045.032.013.019.026.051.038.096s.032.096.038.147c.013.051.013.102.019.147a1.022 1.022 0 0 1-.192.576.812.812 0 0 1-.102.109c-.038.032-.07.064-.115.096l-.141.122a.956.956 0 0 0-.109.115c-.032.038-.058.083-.077.122s-.032.07-.058.122c-.026.058-.064.134-.096.205a.826.826 0 0 1-.096.154.495.495 0 0 1-.282.205c-.038.013-.083.019-.128.026a.83.83 0 0 1-.282-.013c.051.083.122.16.218.237s.224.16.371.218c.141.064.301.109.454.134s.294.032.442.013c.147-.019.301-.064.442-.115a1.646 1.646 0 0 0 .704-.532c.09-.116.16-.243.211-.39a2.34 2.34 0 0 0 .122-.474c.019-.16.026-.314 0-.467a1.278 1.278 0 0 0-.115-.467zm-2.445.499c-.013 0-.026 0-.058-.006a.4.4 0 0 1-.09-.013c-.026 0-.032-.006-.038-.006s-.013 0-.013-.006c-.019-.026-.006-.058-.006-.077 0-.026.019-.051.045-.045a.41.41 0 0 1 .064.026c.058.032.109.051.128.09.013.032-.006.045-.032.038z"/></svg>